<svg width="200.000000pt" height="200.000000pt" viewBox="0 0 100% 100%"  xmlns="http://www.w3.org/2000/svg">
  <g transform="translate(200.000000)" fill="none" stroke="none">
    <path d="M0 2500 c0 -2500 0 -2500 2500 -2500 2500 0 2500 0 2500 2500 0 2500
0 2500 -2500 2500 -2500 0 -2500 0 -2500 -2500z m2580 671 c51 -35 70 -94 70
-213 0 -108 0 -108 113 -108 162 -1 227 -43 227 -145 0 -108 -57 -145 -219
-145 -131 0 -123 9 -131 -140 -8 -153 -40 -202 -134 -204 -93 -1 -145 56 -147
162 -3 179 -1 176 -135 182 -160 7 -214 44 -214 146 0 101 66 143 228 144 112
0 112 0 112 98 0 207 106 310 230 223z" />
  </g>
  <g transform="translate(200.000000) " fill="#82fec0" stroke="none">
    <path d="M2294 2841 c-17 -4 -36 -11 -42 -15 -7 -4 -12 -2 -12 3 0 6 -11 11
-25 11 -36 0 -33 -30 3 -31 27 -1 27 -1 -3 -8 -25 -5 -31 -3 -35 14 -5 16 -16
21 -54 23 -44 3 -48 1 -44 -16 4 -15 1 -18 -13 -15 -13 4 -19 0 -19 -11 0 -9
-5 -16 -11 -16 -7 0 -9 -10 -5 -26 5 -20 3 -27 -14 -31 -23 -6 -26 -26 -7 -45
8 -7 12 -19 9 -26 -4 -14 46 -62 65 -62 6 0 13 -6 16 -12 3 -10 38 -13 130
-13 77 0 128 -4 128 -10 1 -5 1 -57 0 -115 -3 -119 20 -190 59 -190 11 0 20
-7 20 -15 0 -12 13 -15 60 -15 47 0 60 3 60 15 0 8 9 15 20 15 11 0 20 7 20
15 0 8 4 15 8 15 33 0 41 217 9 246 -18 17 -104 26 -110 11 -3 -7 -6 -5 -6 5
-1 21 -53 38 -59 20 -7 -21 -20 -13 -15 8 3 12 -1 22 -11 26 -9 3 -16 12 -16
20 0 17 -27 19 -33 2 -3 -7 -6 -2 -7 12 -3 66 -10 103 -21 117 -9 10 -9 17 -2
21 5 4 10 24 11 45 1 39 -1 40 -54 28z m136 -381 c0 -5 -6 -10 -14 -10 -8 0
-17 -12 -19 -27 -3 -23 -4 -21 -6 10 -1 31 2 37 19 37 11 0 20 -4 20 -10z" />
  </g>
  <g transform="translate(0.000000,500.000000) scale(0.100000,-0.100000)" fill="#58fee5" stroke="none">
    <path d="M2466 3191 c-30 -6 -56 -35 -43 -47 4 -4 17 -2 30 4 12 6 31 12 42
14 11 2 21 11 23 21 4 18 -3 19 -52 8z" />
    <path d="M2550 3170 c0 -5 -7 -10 -15 -10 -8 0 -15 -4 -15 -9 0 -5 -9 -7 -20
-4 -11 3 -20 0 -20 -6 0 -6 -9 -11 -20 -11 -45 0 -60 -33 -62 -137 -2 -97 -2
-97 -5 -20 -6 123 -33 109 -33 -18 0 -95 0 -95 29 -95 20 0 31 6 34 18 4 16 5
16 6 -1 1 -12 9 -17 29 -16 15 0 37 -2 50 -6 14 -5 22 -3 22 4 0 6 6 11 13 11
8 0 13 -10 13 -22 -1 -15 7 -27 22 -33 12 -5 22 -13 22 -18 0 -15 30 -39 44
-34 10 4 12 -6 8 -44 -4 -45 -3 -49 17 -49 15 0 21 -6 21 -24 0 -82 4 -86 104
-86 93 0 146 14 146 38 0 6 -7 12 -15 12 -18 0 -18 4 0 50 13 35 13 35 14 2 1
-49 32 -39 50 16 15 49 9 62 -19 44 -24 -15 -26 0 -4 23 20 19 5 65 -21 65 -8
0 -15 5 -15 10 0 6 -7 10 -16 10 -12 0 -14 -7 -9 -30 6 -27 4 -30 -17 -29 -13
0 -17 3 -10 6 6 2 12 18 12 34 0 29 0 29 -105 29 -103 0 -140 -14 -89 -34 9
-4 14 -9 12 -12 -3 -3 -21 4 -39 15 -19 12 -28 21 -21 21 26 0 10 29 -23 40
-35 12 -35 12 -35 116 0 104 0 104 -25 104 -29 0 -33 16 -6 25 47 15 53 0 50
-119 -4 -99 -2 -111 14 -114 22 -4 26 217 5 244 -43 52 -78 72 -78 44z" />
    <path d="M2372 3120 c-16 -26 -15 -60 1 -60 11 0 37 51 37 73 0 15 -26 6 -38
-13z" />
    <path d="M2650 2590 c0 -11 7 -20 15 -20 8 0 15 9 15 20 0 11 -7 20 -15 20 -8
0 -15 -9 -15 -20z" />
  </g>
  <g transform="translate(0.000000,500.000000) scale(0.100000,-0.100000)" fill="#5afde8" stroke="none">
    <path d="M2494 3188 c-5 -7 -3 -8 6 -3 9 6 11 4 6 -4 -5 -7 -14 -10 -21 -7
-17 6 -28 -46 -12 -56 7 -4 8 -8 2 -8 -5 -1 6 -8 25 -17 19 -8 45 -15 58 -14
21 1 22 -2 22 -84 0 -52 4 -85 10 -85 7 0 7 -6 0 -19 -10 -20 -41 -19 -67 2
-9 6 -15 4 -19 -7 -5 -13 -9 -14 -20 -5 -11 9 -14 8 -14 -6 0 -13 6 -16 21
-12 12 3 32 -1 44 -9 20 -13 24 -13 38 0 8 8 23 12 36 9 29 -7 26 -23 -5 -23
-14 0 -23 -4 -19 -10 4 -6 11 -8 16 -5 5 3 6 -2 3 -12 -5 -16 -4 -16 10 1 9
12 16 14 16 7 0 -8 7 -10 23 -5 12 3 19 3 15 -1 -4 -5 -2 -15 5 -23 10 -13 9
-14 -1 -8 -7 4 -20 2 -28 -5 -12 -10 -13 -9 -9 4 4 8 2 18 -4 22 -18 11 -12
-28 9 -55 11 -14 20 -20 20 -15 0 6 5 3 11 -5 8 -12 9 -11 4 6 -7 26 15 47 35
34 8 -6 50 -10 93 -10 77 0 77 0 77 -32 0 -18 4 -28 8 -23 9 13 52 17 52 5 0
-6 -7 -10 -16 -10 -10 0 -14 -5 -10 -16 3 -8 2 -12 -4 -9 -6 3 -9 -2 -8 -12 5
-63 5 -63 -87 -63 -50 0 -85 -4 -85 -10 0 -5 16 -10 36 -10 21 0 33 -4 29 -10
-3 -5 3 -10 15 -10 12 0 19 4 16 9 -3 5 12 11 33 13 22 2 37 0 35 -4 -3 -5 2
-8 11 -8 11 0 15 5 11 15 -4 10 1 14 17 12 20 -2 22 2 22 45 0 27 6 52 14 60
12 11 13 11 6 -1 -5 -9 -4 -12 3 -8 5 4 9 15 7 25 -2 9 -4 21 -4 26 -1 4 -13
5 -27 2 -23 -6 -25 -4 -19 11 13 34 14 53 2 54 -7 1 -23 2 -37 3 -18 1 -24 6
-22 19 3 15 -6 17 -73 17 -57 0 -76 -3 -72 -12 2 -9 25 -13 65 -13 70 0 94
-14 68 -40 -12 -12 -16 -13 -16 -3 0 10 -3 9 -10 -2 -9 -13 -10 -13 -10 0 0
13 -1 13 -10 0 -9 -13 -10 -13 -10 0 0 13 -1 13 -10 0 -9 -13 -10 -13 -10 0 0
13 -1 13 -10 0 -9 -13 -10 -13 -10 0 0 12 -2 13 -9 1 -7 -11 -9 -11 -14 0 -4
10 -6 10 -6 2 -2 -22 -21 -14 -21 7 0 11 -6 23 -14 26 -9 3 -12 12 -9 21 5 13
0 15 -23 11 -25 -3 -29 0 -31 20 0 13 -7 29 -13 36 -10 8 -11 8 -5 -3 5 -8 4
-12 -2 -8 -12 7 -4 181 8 185 5 2 9 10 9 18 0 9 -4 12 -10 9 -6 -4 -7 1 -3 11
5 14 3 16 -11 11 -11 -4 -15 -3 -10 4 4 8 -1 9 -16 4 -14 -4 -20 -3 -16 3 3 5
-1 12 -9 16 -8 3 -15 12 -15 20 0 23 -43 35 -56 14z m66 -49 c0 -11 -29 -39
-40 -39 -5 0 -5 11 1 23 10 22 39 34 39 16z" />
    <path d="M2400 3155 c-6 -8 -8 -20 -4 -26 5 -8 3 -9 -6 -4 -10 6 -12 4 -7 -8
3 -9 2 -19 -4 -23 -6 -4 -5 -11 3 -22 9 -11 10 -16 2 -19 -8 -3 -9 -17 -2 -49
11 -49 4 -99 -12 -89 -6 3 -10 -1 -10 -9 0 -9 6 -15 13 -13 6 1 11 -3 10 -9
-2 -11 36 -9 67 4 8 3 20 7 25 7 6 1 17 5 25 8 8 3 24 8 35 10 11 3 -1 5 -27
6 -27 0 -48 -3 -48 -9 0 -5 -11 -10 -24 -10 -33 0 -45 180 -13 199 11 8 17 22
15 41 -2 32 -18 39 -38 15z" />
    <path d="M2696 2698 c6 -21 5 -22 -11 -8 -16 14 -17 12 -11 -18 5 -20 4 -32
-3 -32 -5 0 -9 -18 -8 -40 1 -35 4 -40 24 -40 24 0 32 25 11 33 -7 3 -8 6 -3
6 6 1 9 16 7 35 -2 18 1 37 7 40 17 11 13 46 -5 46 -11 0 -14 -6 -8 -22z" />
  </g>
  <g transform="translate(0.000000,500.000000) scale(0.100000,-0.100000)" fill="#02dd73" stroke="none">
    <path d="M2438 2843 c-31 -8 -21 -33 15 -34 32 -2 32 -2 3 -6 -22 -4 -34 1
-46 17 -13 17 -22 21 -40 15 -25 -8 -24 -100 2 -117 10 -6 10 -8 1 -8 -28 0
-10 -35 47 -91 70 -68 199 -90 214 -36 15 58 -4 174 -31 184 -7 3 -13 11 -13
19 0 8 -9 14 -20 14 -11 0 -20 5 -20 10 0 6 -6 10 -14 10 -8 0 -16 4 -18 9 -4
11 -57 20 -80 14z m58 -147 c15 -16 17 -60 4 -91 -6 -15 -9 -6 -9 34 -1 53 -1
53 -45 50 -32 -3 -42 -1 -39 9 7 17 71 15 89 -2z m107 -33 c3 -16 2 -34 -3
-42 -5 -9 -9 0 -12 27 -4 47 7 57 15 15z" />
  </g>
  <g transform="translate(0.000000,500.000000) scale(0.100000,-0.100000)" fill="#83febd" stroke="none">
    <path d="M2225 2845 c-5 -2 -22 -6 -36 -9 -50 -11 -33 -51 21 -50 27 1 44 5
43 12 -2 6 6 16 17 22 39 21 2 41 -45 25z" />
    <path d="M2074 2795 c3 -8 0 -15 -7 -15 -8 0 -12 -19 -12 -57 0 -31 -5 -63
-12 -72 -18 -23 -16 -30 7 -28 24 2 32 22 29 79 -3 45 16 93 32 83 5 -4 9 -2
9 3 0 10 -23 22 -42 22 -6 0 -8 -7 -4 -15z" />
    <path d="M2030 2741 c0 -16 -4 -33 -10 -36 -5 -3 -10 -12 -10 -18 1 -7 10 -1
20 12 22 25 26 56 10 66 -6 4 -10 -6 -10 -24z" />
    <path d="M2242 2690 c3 -84 -3 -91 -64 -81 -24 4 -3 -20 24 -27 49 -13 103 21
68 43 -5 3 -10 37 -10 76 0 42 -4 69 -11 69 -7 0 -9 -28 -7 -80z" />
    <path d="M2320 2706 c0 -6 -3 -22 -6 -36 -5 -23 -4 -24 9 -8 8 10 16 16 18 13
3 -2 6 6 7 19 1 14 -4 23 -13 23 -8 0 -15 -5 -15 -11z" />
    <path d="M2346 2632 c-2 -4 -1 -14 5 -22 11 -19 12 -33 0 -25 -5 3 -12 1 -16
-5 -3 -5 3 -10 14 -10 12 0 21 7 21 15 0 8 5 15 10 15 12 0 9 22 -5 32 -13 10
-23 10 -29 0z" />
    <path d="M2409 2550 c-6 -16 -15 -30 -21 -30 -6 0 -8 -7 -4 -15 3 -8 2 -15 -2
-15 -4 0 -4 -35 -1 -77 4 -43 5 -89 2 -102 -4 -16 -2 -22 6 -17 6 4 11 22 11
39 0 100 6 107 86 107 46 0 74 -4 74 -11 0 -5 5 -7 10 -4 6 4 9 -9 7 -35 -5
-66 26 -63 38 4 7 33 5 38 -8 33 -16 -6 -27 11 -27 44 0 10 -7 19 -15 19 -9 0
-12 -6 -9 -15 5 -12 -5 -15 -55 -15 -34 0 -61 4 -61 10 0 6 -9 10 -20 10 -21
0 -27 24 -12 47 8 12 56 12 69 0 13 -14 50 -7 50 9 0 11 -7 14 -24 11 -12 -2
-23 0 -23 4 0 5 -7 5 -17 2 -10 -4 -14 -2 -10 4 4 6 0 14 -9 17 -23 9 -24 8
-35 -24z" />
    <path d="M2602 2541 c-10 -6 -10 -10 3 -21 8 -7 15 -19 15 -26 0 -8 5 -14 10
-14 6 0 10 16 10 35 0 35 -12 43 -38 26z" />
    <path d="M2465 2270 c-4 -6 -11 -8 -16 -5 -5 4 -9 -1 -9 -9 0 -16 18 -16 52
-2 19 9 61 -11 53 -25 -4 -5 1 -9 9 -9 21 0 20 30 -1 46 -21 16 -79 18 -88 4z" />
  </g>
  <g transform="translate(0.000000,500.000000) scale(0.100000,-0.100000)" fill="#88fcc2" stroke="none">
    <path d="M2120 2840 c0 -5 9 -10 21 -10 11 0 18 -4 15 -8 -6 -10 79 10 90 21
4 4 -23 7 -59 7 -38 0 -67 -4 -67 -10z" />
    <path d="M2273 2836 c0 -8 8 -11 19 -8 10 2 24 0 31 -6 10 -8 13 -6 13 9 0 15
-7 19 -31 19 -20 0 -32 -5 -32 -14z" />
    <path d="M2048 2813 c-45 -49 -65 -173 -27 -173 18 0 21 29 5 45 -20 20 -20
26 -1 19 12 -5 15 2 15 30 0 30 4 36 21 36 18 0 20 2 9 16 -8 8 -9 14 -4 13
23 -4 33 3 31 21 -2 28 -19 25 -49 -7z" />
    <path d="M2324 2723 c-3 -10 -10 -26 -15 -35 -14 -27 -11 -58 7 -58 8 0 13 4
10 9 -3 5 -2 30 3 55 8 45 5 62 -5 29z" />
    <path d="M2037 2643 c-18 -17 -4 -44 33 -63 47 -24 82 -27 74 -5 -4 8 -10 12
-15 10 -13 -8 -57 24 -64 46 -7 20 -17 24 -28 12z" />
    <path d="M2348 2638 c-3 -7 -3 -19 -1 -25 5 -15 33 8 33 26 0 15 -27 14 -32
-1z" />
    <path d="M2316 2571 c-3 -5 5 -12 19 -15 23 -6 24 -8 18 -71 -4 -46 -2 -65 6
-65 9 0 17 46 12 74 -1 5 5 6 14 2 13 -4 14 -2 5 14 -18 34 -13 49 16 44 16
-3 23 -1 19 6 -3 6 0 7 9 4 9 -3 16 -1 16 5 0 6 -11 10 -25 9 -14 -1 -25 -5
-25 -9 0 -3 -7 -6 -15 -6 -8 0 -15 4 -15 9 0 11 -47 10 -54 -1z" />
    <path d="M2440 2541 c0 -6 1 -11 3 -12 42 -8 86 -8 91 0 5 7 1 8 -10 4 -12 -4
-15 -3 -10 5 4 7 1 12 -9 12 -9 0 -13 -4 -10 -10 3 -5 2 -10 -4 -10 -5 0 -12
6 -14 13 -4 9 -6 8 -6 -2 -1 -11 -4 -11 -16 -1 -10 9 -15 9 -15 1z" />
    <path d="M2627 2458 c4 -113 -10 -168 -41 -163 -37 7 -64 -42 -32 -57 34 -15
60 8 80 71 18 55 19 241 1 241 -7 0 -10 -29 -8 -92z" />
    <path d="M2547 2503 c-22 -6 -12 -23 14 -23 10 0 19 7 19 15 0 15 -2 16 -33 8z" />
    <path d="M2354 2348 c9 -67 33 -106 75 -124 42 -18 94 -19 88 -1 -2 6 -12 11
-21 10 -11 0 -15 4 -12 13 3 8 1 14 -4 14 -6 0 -10 -7 -10 -15 0 -8 -4 -15
-10 -15 -5 0 -9 3 -9 8 4 24 -3 33 -21 27 -22 -7 -60 59 -60 107 0 15 -5 28
-11 28 -8 0 -9 -16 -5 -52z" />
  </g>
  <g transform="translate(0.000000,500.000000) scale(0.100000,-0.100000)" fill="#55fee8" stroke="none">
    <path d="M2456 3174 c-3 -8 -11 -12 -16 -9 -6 4 -9 1 -8 -7 2 -7 -5 -12 -14
-12 -20 2 -13 -22 8 -30 18 -7 45 6 64 28 9 12 10 16 0 16 -7 0 -10 7 -6 15 3
9 0 15 -8 15 -8 0 -17 -7 -20 -16z" />
    <path d="M2534 3174 c3 -18 31 -37 47 -32 13 4 -19 48 -36 48 -7 0 -12 -7 -11
-16z" />
    <path d="M2538 3117 c-7 -7 -22 -17 -33 -22 -19 -8 -19 -8 -1 -13 10 -2 22 2
27 10 7 11 12 11 26 0 10 -7 26 -15 36 -18 23 -8 26 -141 2 -150 -16 -7 -21
-54 -5 -54 22 0 45 209 25 228 -5 4 -5 0 -1 -8 4 -8 0 -6 -9 5 -14 17 -17 18
-25 5 -8 -13 -10 -13 -10 2 0 23 -16 31 -32 15z" />
    <path d="M2373 3094 c0 -7 4 -11 9 -8 5 4 4 -4 -4 -16 -10 -18 -10 -24 -1 -27
9 -3 11 -21 6 -62 -4 -39 -2 -61 6 -65 8 -5 11 16 11 73 0 44 5 83 10 86 17
10 11 22 -13 27 -15 3 -24 0 -24 -8z" />
    <path d="M2403 2875 c0 -9 9 -15 22 -15 13 0 22 6 22 15 0 9 -9 15 -22 15 -13
0 -22 -6 -22 -15z" />
    <path d="M2513 2865 c0 -15 34 -31 45 -21 5 6 -26 35 -39 36 -3 0 -6 -7 -6
-15z" />
    <path d="M2638 2852 c-4 -23 -2 -38 7 -44 17 -13 35 -9 35 7 0 8 -5 15 -11 15
-5 0 -8 4 -5 9 3 5 -1 11 -9 15 -8 3 -16 2 -17 -2z" />
    <path d="M2926 2775 c-3 -9 0 -15 10 -15 10 0 13 -7 8 -25 -4 -15 -2 -25 5
-25 6 0 11 7 11 16 0 8 5 12 10 9 18 -11 11 14 -10 35 -24 24 -26 24 -34 5z" />
    <path d="M2900 2699 c0 -39 1 -41 14 -24 13 19 11 51 -5 61 -5 3 -9 -14 -9
-37z" />
    <path d="M2707 2697 c-4 -10 -15 -17 -24 -15 -14 2 -19 -5 -21 -29 -3 -26 0
-32 12 -27 9 3 16 13 16 21 0 9 7 21 16 28 9 6 15 18 12 25 -3 10 -6 10 -11
-3z" />
    <path d="M2677 2603 c-12 -11 -8 -21 13 -26 15 -4 20 0 20 14 0 18 -20 26 -33
12z" />
    <path d="M2757 2583 c18 -2 50 -2 70 0 21 2 7 4 -32 4 -38 0 -55 -2 -38 -4z" />
  </g>
  <g transform="translate(0.000000,500.000000) scale(0.100000,-0.100000)" fill="#01df74" stroke="none">
    <path d="M2365 2796 c0 -25 4 -42 10 -40 6 2 10 22 10 44 0 22 -4 40 -10 40
-5 0 -10 -20 -10 -44z" />
    <path d="M2410 2820 c-30 -19 2 -35 68 -34 92 1 102 2 102 14 0 7 -13 8 -36 4
-29 -5 -35 -4 -29 6 5 7 4 11 -1 7 -5 -3 -28 -2 -51 2 -23 5 -47 5 -53 1z" />
    <path d="M2553 2773 c-15 -5 -17 -33 -3 -33 6 0 10 8 10 18 0 14 2 15 10 2 13
-20 13 -43 0 -35 -5 3 -10 1 -10 -4 0 -6 4 -11 10 -11 5 0 7 -7 4 -15 -4 -8
-1 -22 6 -30 7 -8 10 -26 6 -40 -5 -18 -2 -25 8 -25 28 0 33 83 6 100 -7 5
-11 20 -8 38 4 31 -11 44 -39 35z" />
    <path d="M2360 2714 c0 -13 5 -26 12 -30 7 -5 8 -3 3 6 -6 9 -4 11 4 6 7 -5
10 -13 8 -20 -3 -6 4 -12 14 -12 11 0 19 3 19 6 0 31 55 2 57 -29 3 -35 2 -35
-10 -12 -6 14 -18 26 -25 27 -7 1 -8 0 -2 -3 5 -2 7 -10 4 -15 -5 -7 -2 -8 6
-3 10 6 12 1 7 -25 -6 -26 -4 -31 9 -26 9 3 12 2 9 -5 -4 -6 3 -7 21 -3 19 5
25 4 20 -5 -5 -7 1 -11 16 -11 23 1 23 1 3 18 -17 14 -20 26 -17 64 3 33 -1
52 -11 63 -19 18 -103 21 -110 3 -3 -7 -6 -4 -6 8 -1 29 -31 27 -31 -2z" />
    <path d="M2623 2590 c-6 -15 -7 -26 -1 -29 15 -5 20 5 16 31 -5 23 -5 23 -15
-2z" />
  </g>
  <g transform="translate(0.000000,500.000000) scale(0.100000,-0.100000)" fill="#7cfebe" stroke="none">
    <path d="M2334 2823 c1 -21 -2 -46 -7 -56 -5 -11 -4 -23 3 -32 16 -19 16 -71
-1 -92 -13 -17 -13 -17 5 -3 18 14 19 13 13 -4 -6 -14 -5 -16 5 -8 9 7 17 6
26 -4 7 -8 9 -14 5 -14 -4 0 3 -10 17 -21 14 -11 18 -17 10 -13 -8 4 -12 3 -8
-1 5 -5 20 -10 35 -11 14 -2 29 -7 32 -11 3 -4 17 -10 31 -11 14 -2 30 -8 35
-12 6 -5 30 -5 55 0 25 4 48 6 52 4 5 -3 8 1 8 8 0 9 -20 13 -73 14 -78 1
-163 32 -175 63 -3 9 -15 30 -26 46 -17 24 -21 45 -21 113 0 53 -4 82 -11 82
-6 0 -10 -16 -10 -37z" />
    <path d="M2133 2809 c-24 -9 -31 -29 -10 -29 23 0 57 12 57 20 0 13 -24 18
-47 9z" />
    <path d="M2583 2324 c4 -21 0 -39 -11 -55 -15 -22 -15 -23 1 -11 9 8 20 11 25
8 11 -7 -2 71 -13 82 -4 4 -5 -7 -2 -24z" />
    <path d="M2473 2246 c-4 -5 -1 -6 5 -2 7 4 12 3 12 -2 0 -6 8 -13 17 -16 10
-4 14 -4 10 0 -4 4 1 12 10 19 14 11 12 12 -16 11 -18 0 -35 -5 -38 -10z" />
  </g>
  <g transform="translate(0.000000,500.000000) scale(0.100000,-0.100000)" fill="#f6fefc" stroke="none">
    <path d="M2465 3200 c-4 -6 10 -10 35 -10 25 0 39 4 35 10 -3 6 -19 10 -35 10
-16 0 -32 -4 -35 -10z" />
    <path d="M2634 3100 c3 -14 6 -73 6 -132 0 -71 4 -108 11 -108 17 0 8 236 -10
252 -12 11 -13 9 -7 -12z" />
    <path d="M2347 3073 c-11 -11 -8 -213 3 -213 6 0 10 43 10 110 0 110 -1 116
-13 103z" />
    <path d="M2043 2818 c-28 -31 -46 -68 -37 -76 4 -4 9 -1 12 6 2 8 17 29 33 47
42 47 34 69 -8 23z" />
    <path d="M2920 2830 c0 -6 6 -13 14 -16 7 -3 22 -21 32 -40 26 -47 47 -48 23
-1 -24 46 -69 83 -69 57z" />
    <path d="M2000 2665 c0 -14 32 -66 37 -61 8 7 -17 66 -28 66 -5 0 -9 -2 -9 -5z" />
    <path d="M2941 2599 c-13 -11 -21 -22 -18 -26 8 -7 57 24 57 37 0 15 -12 12
-39 -11z" />
    <path d="M2328 2549 c6 -7 12 -34 12 -60 0 -26 5 -51 11 -54 7 -5 9 14 7 57
-3 54 -6 63 -23 66 -16 3 -18 1 -7 -9z" />
    <path d="M2644 2546 c-3 -8 -4 -25 -2 -38 4 -22 5 -22 12 -3 4 11 12 28 17 38
7 13 5 17 -6 17 -9 0 -18 -6 -21 -14z" />
    <path d="M2600 2265 c-14 -19 -31 -35 -37 -35 -15 0 -18 -20 -4 -20 14 0 81
65 81 79 0 20 -14 11 -40 -24z" />
    <path d="M2370 2270 c0 -11 40 -50 52 -50 4 0 8 5 8 10 0 6 -6 10 -14 10 -8 0
-18 9 -21 20 -6 20 -25 28 -25 10z" />
    <path d="M2465 2210 c3 -5 19 -10 35 -10 16 0 32 5 35 10 4 6 -10 10 -35 10
-25 0 -39 -4 -35 -10z" />
  </g>
  <g transform="translate(0.000000,500.000000) scale(0.100000,-0.100000)" fill="#91f6c2" stroke="none">
    <path d="M2120 2853 c-30 -6 -80 -40 -80 -55 0 -7 11 -1 25 12 23 22 36 24
148 28 152 5 183 23 37 21 -58 -1 -116 -4 -130 -6z" />
    <path d="M2011 2762 c-7 -13 -11 -28 -8 -35 2 -7 9 -2 16 11 7 13 11 28 8 35
-2 7 -9 2 -16 -11z" />
    <path d="M2000 2680 c0 -17 31 -72 37 -66 3 3 -2 21 -11 41 -17 35 -26 44 -26
25z" />
    <path d="M2050 2591 c0 -11 59 -36 66 -28 3 3 -8 13 -25 21 -35 18 -41 19 -41
7z" />
    <path d="M2160 2560 c0 -5 42 -11 93 -12 92 -3 92 -3 95 -31 4 -35 22 -25 22
13 0 16 -7 30 -16 34 -26 10 -194 7 -194 -4z" />
    <path d="M2639 2538 c-8 -23 -8 -108 0 -113 7 -4 11 14 11 54 0 49 -5 75 -11
59z" />
    <path d="M2350 2410 c0 -18 4 -29 10 -25 6 3 10 15 10 25 0 10 -4 22 -10 25
-6 4 -10 -7 -10 -25z" />
    <path d="M2350 2340 c0 -27 29 -90 41 -90 13 0 11 12 -6 34 -8 11 -15 30 -15
42 0 13 -4 26 -10 29 -5 3 -10 -4 -10 -15z" />
    <path d="M2638 2355 c-3 -6 -11 -27 -17 -47 -14 -43 -53 -78 -87 -78 -12 0
-26 -4 -29 -10 -4 -6 6 -10 23 -10 38 0 98 51 112 96 11 33 10 68 -2 49z" />
  </g>
  <g transform="translate(0.000000,500.000000) scale(0.100000,-0.100000)" fill="#0ad877" stroke="none">
    <path d="M2350 2834 c0 -22 2 -25 15 -14 12 10 18 10 30 0 12 -10 18 -10 30 0
18 15 75 16 84 1 13 -21 63 -25 59 -5 -9 47 -218 64 -218 18z" />
    <path d="M2350 2738 c1 -64 44 -136 99 -165 51 -27 201 -35 201 -10 0 9 -20
11 -77 9 -83 -4 -142 21 -129 55 3 8 1 11 -4 8 -22 -13 -70 51 -70 94 0 22 -4
43 -10 46 -6 4 -10 -11 -10 -37z" />
    <path d="M2606 2748 c5 -13 8 -33 9 -45 0 -11 3 -19 8 -16 4 2 7 -19 7 -46 0
-28 5 -51 10 -51 14 0 13 94 -2 141 -6 22 -18 39 -25 39 -10 0 -12 -6 -7 -22z" />
  </g>
  <g transform="translate(0.000000,500.000000) scale(0.100000,-0.100000)" fill="#54fee3" stroke="none">
    <path d="M2451 3187 c-6 -8 -8 -16 -5 -19 5 -6 64 20 64 28 0 10 -49 3 -59 -9z" />
    <path d="M2554 3175 c11 -8 15 -19 10 -27 -4 -7 -4 -10 1 -6 4 4 14 3 21 -3 9
-7 12 -6 10 4 -2 19 -31 47 -48 47 -8 -1 -7 -6 6 -15z" />
    <path d="M2360 3066 c0 -23 4 -35 10 -31 6 4 9 17 7 30 -5 40 -17 41 -17 1z" />
    <path d="M2467 2882 c-16 -17 -14 -19 39 -36 61 -19 86 -14 35 7 -17 7 -28 17
-24 21 5 5 -3 5 -16 1 -20 -6 -23 -4 -18 9 8 21 4 20 -16 -2z" />
    <path d="M2882 2824 c9 -9 21 -13 27 -10 20 13 11 26 -16 26 -25 0 -26 -1 -11
-16z" />
    <path d="M2584 2819 c-4 -7 1 -18 11 -26 23 -16 35 -17 35 -2 0 5 -4 7 -10 4
-5 -3 -10 1 -10 9 0 20 -17 29 -26 15z" />
    <path d="M2643 2724 c4 -21 7 -61 7 -87 0 -34 3 -46 12 -41 8 5 9 1 4 -12 -5
-12 -4 -15 2 -9 6 6 7 32 3 62 -4 29 -4 50 1 47 4 -3 8 -1 8 5 0 5 -4 13 -10
16 -5 3 -10 15 -10 25 0 10 -5 22 -12 26 -8 5 -9 -4 -5 -32z" />
    <path d="M2976 2698 c-21 -33 -11 -60 11 -29 8 12 13 29 11 39 -3 14 -7 12
-22 -10z" />
  </g>
  <g transform="translate(0.000000,500.000000) scale(0.100000,-0.100000)" fill="#6af5dd" stroke="none">
    <path d="M2468 3203 c-16 -2 -28 -10 -28 -17 0 -10 7 -11 35 -2 29 9 52 29 28
25 -5 -1 -20 -4 -35 -6z" />
    <path d="M2394 3166 c-36 -40 -44 -76 -44 -191 0 -85 3 -115 13 -115 9 0 11
28 9 116 -3 117 -3 117 27 155 38 46 32 78 -5 35z" />
    <path d="M2570 3171 c0 -5 7 -12 16 -15 8 -3 12 -10 9 -16 -3 -5 1 -10 9 -10
19 0 21 21 4 38 -14 14 -38 16 -38 3z" />
    <path d="M2630 2879 c0 -34 32 -43 153 -44 99 -2 122 -5 132 -18 7 -10 17 -17
23 -17 14 0 32 -33 32 -59 0 -12 7 -21 15 -21 31 0 -14 95 -50 106 -11 4 -23
12 -27 18 -5 7 -55 12 -133 14 -100 3 -125 7 -125 18 0 8 -4 14 -10 14 -5 0
-10 -5 -10 -11z" />
    <path d="M2956 2635 c-27 -56 -60 -67 -192 -63 -86 2 -114 0 -114 -9 0 -20
222 -18 265 3 41 19 62 41 70 77 10 39 -9 34 -29 -8z" />
  </g>
  <g transform="translate(0.000000,500.000000) scale(0.100000,-0.100000)" fill="#63f9e1" stroke="none">
    <path d="M2425 3181 c-32 -19 -71 -69 -61 -78 7 -7 27 7 22 16 -3 3 11 17 30
30 19 13 34 28 34 33 0 5 4 7 9 3 5 -3 12 -1 16 5 10 16 -17 12 -50 -9z" />
    <path d="M2515 3190 c3 -5 15 -10 25 -10 10 0 22 -5 25 -10 4 -6 11 -7 17 -4
16 10 -20 34 -50 34 -13 0 -20 -4 -17 -10z" />
    <path d="M2603 3142 c-7 -5 -2 -13 13 -25 19 -14 24 -15 24 -4 0 20 -23 37
-37 29z" />
    <path d="M2637 3073 c-24 -37 -1 -243 25 -227 5 4 5 11 -1 18 -6 7 -12 59 -13
117 -2 57 -7 98 -11 92z" />
    <path d="M2870 2841 c0 -7 6 -11 13 -10 19 3 48 -12 41 -22 -6 -10 9 -12 19
-3 9 10 -17 32 -47 40 -17 4 -26 2 -26 -5z" />
    <path d="M2960 2780 c0 -5 4 -10 9 -10 4 0 6 -11 4 -24 -3 -15 1 -25 11 -29
10 -4 16 -1 16 9 0 9 -5 12 -12 8 -7 -4 -8 -3 -4 5 9 14 -2 51 -15 51 -5 0 -9
-4 -9 -10z" />
    <path d="M2981 2682 c-6 -12 -8 -22 -4 -22 4 0 0 -6 -9 -12 -20 -16 -33 -58
-19 -58 14 0 54 85 49 102 -3 8 -9 5 -17 -10z" />
  </g>
  <g transform="translate(0.000000,500.000000) scale(0.100000,-0.100000)" fill="#95f5e4" stroke="none">
    <path d="M2394 3166 c-14 -16 -36 -56 -31 -56 3 0 17 16 31 35 25 33 25 50 0
21z" />
    <path d="M2610 3139 c12 -16 24 -28 27 -25 7 6 -27 56 -39 56 -5 0 0 -14 12
-31z" />
    <path d="M2641 2973 c0 -61 2 -114 7 -116 4 -3 6 36 4 86 -4 141 -9 154 -11
30z" />
    <path d="M2351 2978 c0 -53 -4 -103 -7 -112 -4 -10 -1 -16 7 -16 11 0 13 19
11 87 -4 132 -9 150 -11 41z" />
    <path d="M2992 2707 c-1 -16 -7 -37 -12 -48 -8 -13 -7 -19 0 -19 15 0 22 23
17 62 -3 30 -4 30 -5 5z" />
    <path d="M2913 2580 c-35 -16 -44 -31 -15 -23 20 5 58 31 51 36 -2 1 -19 -4
-36 -13z" />
  </g>
  <g transform="translate(0.000000,500.000000) scale(0.100000,-0.100000)" fill="#ddfbeb" stroke="none">
    <path d="M2130 2852 c0 -4 37 -6 83 -4 131 4 141 9 25 11 -60 0 -108 -2 -108
-7z" />
    <path d="M2160 2558 c0 -4 43 -8 95 -10 52 -2 95 0 95 4 0 4 -43 8 -95 10 -52
2 -95 0 -95 -4z" />
    <path d="M2635 2325 c-4 -16 -12 -36 -18 -43 -5 -7 -7 -15 -4 -18 9 -9 39 55
34 74 -2 12 -6 7 -12 -13z" />
    <path d="M2376 2264 c17 -26 63 -54 86 -54 7 1 -4 10 -25 21 -20 11 -43 28
-50 39 -6 11 -15 20 -20 20 -4 0 0 -11 9 -26z" />
  </g>
  <g transform="translate(0.000000,500.000000) scale(0.100000,-0.100000)" fill="#51fed7" stroke="none">
    <path d="M2355 2860 c-4 -6 18 -10 58 -10 155 0 227 -73 227 -231 0 -46 4 -66
13 -66 9 0 11 23 6 98 -6 96 -13 118 -49 146 -8 6 -15 17 -15 24 0 7 -7 13
-15 15 -8 1 -35 9 -59 18 -48 18 -156 22 -166 6z" />
  </g>
  <g transform="translate(0.000000,500.000000) scale(0.100000,-0.100000)" fill="#ebfefb" stroke="none">
    <path d="M2550 3192 c0 -4 13 -13 28 -20 27 -12 42 -32 56 -76 4 -10 9 -16 12
-13 11 10 -28 77 -56 97 -30 21 -40 24 -40 12z" />
  </g>
  <g transform="translate(0.000000,500.000000) scale(0.100000,-0.100000)" fill="#bcf6d8" stroke="none">
    <path d="M2644 2445 c0 -60 1 -84 3 -52 2 32 2 81 0 110 -2 29 -3 3 -3 -58z" />
  </g>
  <g transform="translate(0.000000,500.000000) scale(0.100000,-0.100000)" fill="#03dc7b" stroke="none">
    <path d="M2540 2809 c-10 -18 -9 -20 12 -17 17 2 22 -1 20 -13 -3 -18 34 -33
44 -17 7 10 -21 45 -48 59 -13 7 -20 4 -28 -12z" />
    <path d="M2587 2683 c-11 -10 -8 -71 4 -78 6 -5 9 9 8 39 -2 25 -3 46 -4 46
-1 0 -5 -3 -8 -7z" />
  </g>
  <g transform="translate(0.000000,500.000000) scale(0.100000,-0.100000)" fill="#c1fbf3" stroke="none">
    <path d="M2698 2853 c28 -2 76 -2 105 0 28 2 5 3 -53 3 -58 0 -81 -1 -52 -3z" />
  </g>
  <g transform="translate(0.000000,500.000000) scale(0.100000,-0.100000)" fill="#6dffbb" stroke="none">
    <path d="M2347 2833 c-11 -10 -8 -111 3 -118 6 -4 10 18 10 59 0 66 -1 72 -13
59z" />
    <path d="M2350 2689 c0 -6 8 -23 18 -37 10 -15 21 -34 24 -43 7 -18 94 -62
111 -56 7 3 -1 10 -17 16 -51 20 -87 52 -103 92 -14 37 -33 52 -33 28z" />
    <path d="M2535 2550 c3 -5 26 -10 50 -10 24 0 47 5 50 10 4 6 -15 10 -50 10
-35 0 -54 -4 -50 -10z" />
  </g>
  <g transform="translate(0.000000,500.000000) scale(0.100000,-0.100000)" fill="#aaf2cf" stroke="none">
    <path d="M2354 2450 c0 -52 1 -74 3 -47 2 26 2 68 0 95 -2 26 -3 4 -3 -48z" />
  </g>
  <g transform="translate(0.000000,500.000000) scale(0.100000,-0.100000)" fill="#9ff2ca" stroke="none" />
  <g transform="translate(0.000000,500.000000) scale(0.100000,-0.100000)" fill="#10d586" stroke="none">
    <path d="M2473 2853 c4 -6 22 -14 40 -17 79 -15 132 -109 125 -225 -1 -33 1
-61 6 -61 25 0 0 189 -31 227 -39 49 -165 117 -140 76z" />
  </g>
  <g transform="translate(0.000000,500.000000) scale(0.100000,-0.100000)" fill="#00dc6e" stroke="none" />
  <g transform="translate(0.000000,500.000000) scale(0.100000,-0.100000)" fill="#b7f6ec" stroke="none">
    <path d="M2723 2553 c26 -2 67 -2 90 0 23 2 2 3 -48 3 -49 0 -68 -1 -42 -3z" />
  </g>
  <g transform="translate(0.000000,500.000000) scale(0.100000,-0.100000)" fill="#34e08b" stroke="none">
    <path d="M2360 2684 c0 -4 9 -23 21 -43 20 -36 59 -70 59 -52 0 5 -7 11 -15
14 -8 4 -23 24 -35 47 -19 37 -30 49 -30 34z" />
    <path d="M2543 2553 c20 -2 54 -2 75 0 20 2 3 4 -38 4 -41 0 -58 -2 -37 -4z" />
  </g>
  <g transform="translate(0.000000,500.000000) scale(0.100000,-0.100000)" fill="#25e9a5" stroke="none">
    <path d="M2350 2852 c0 -4 21 -6 48 -4 82 5 89 9 20 11 -38 0 -68 -2 -68 -7z" />
  </g>
  <g transform="translate(0.000000,500.000000) scale(0.100000,-0.100000)" fill="#7cf4dd" stroke="none" />
  <g transform="translate(0.000000,500.000000) scale(0.100000,-0.100000)" fill="#d5fdf8" stroke="none" />
  <g transform="translate(0.000000,500.000000) scale(0.100000,-0.100000)" fill="#abfbee" stroke="none" />
  <g transform="translate(0.000000,500.000000) scale(0.100000,-0.100000)" fill="#17cd76" stroke="none">
    <path d="M2353 2790 c0 -30 2 -43 4 -27 2 15 2 39 0 55 -2 15 -4 2 -4 -28z" />
    <path d="M2352 2703 c3 -5 11 -23 18 -40 8 -18 18 -33 22 -33 5 0 -1 18 -12
40 -11 22 -23 40 -26 40 -3 0 -4 -3 -2 -7z" />
  </g>
  <g transform="translate(0.000000,500.000000) scale(0.100000,-0.100000)" fill="#22d47e" stroke="none" />
  <g transform="translate(0.000000,500.000000) scale(0.100000,-0.100000)" fill="#54faa8" stroke="none" />
  <g transform="translate(0.000000,500.000000) scale(0.100000,-0.100000)" fill="#36f4ba" stroke="none" />
  <g transform="translate(0.000000,500.000000) scale(0.100000,-0.100000)" fill="#6feed7" stroke="none" />
</svg>